<svg xmlns="http://www.w3.org/2000/svg" width="24" height="22" viewBox="0 0 24 22"><g><path fill="#ef7f1a" d="M3.999 0c.363 0 .708.286.783.653l.434 2.097H23.21c.476.003.88.526.776 1.005l-1.868 8.25a.831.831 0 0 1-.776.644h-14.1l.342 1.65h12.691c.423-.005.812.39.812.825 0 .436-.389.831-.812.825H6.934c-.405.004-.725-.415-.834-.92L3.348 1.65H.797c-.443 0-.8-.369-.8-.824 0-.456.357-.825.8-.825zm2.06 6.875h4.343V4.4H5.55zm5.944 0h3.736V4.4h-3.736zm5.337 0h4.303L22.2 4.4H17.34zM6.909 10.999h3.493V8.524H6.4zm5.094 0h3.736V8.524h-3.736zm5.337 0h3.369l.558-2.475H17.34zm-5.07 8.25c0 1.51-1.204 2.75-2.668 2.75-1.464 0-2.668-1.24-2.668-2.75 0-1.509 1.204-2.75 2.668-2.75 1.464 0 2.668 1.241 2.668 2.75zm8.005 0c0 1.51-1.204 2.75-2.668 2.75-1.464 0-2.668-1.24-2.668-2.75 0-1.509 1.204-2.75 2.668-2.75 1.464 0 2.668 1.241 2.668 2.75zm-11.74 0c0 .618.468 1.1 1.067 1.1s1.067-.482 1.067-1.1c0-.617-.468-1.1-1.067-1.1s-1.067.483-1.067 1.1zm8.005 0c0 .618.468 1.1 1.067 1.1s1.067-.482 1.067-1.1c0-.617-.468-1.1-1.067-1.1-.6 0-1.067.483-1.067 1.1z"/></g></svg>
