<svg xmlns="http://www.w3.org/2000/svg" viewBox="0 0 24.01 22"><defs><style>.cls-1{fill-rule:evenodd;}</style></defs><title>basket-black</title><g id="Слой_2" data-name="Слой 2"><g id="header"><g id="basket"><path class="cls-1" d="M17.61,16.5a2.75,2.75,0,1,0,2.67,2.75A2.73,2.73,0,0,0,17.61,16.5Zm0,3.85a1.1,1.1,0,1,1,1.07-1.1A1.07,1.07,0,0,1,17.61,20.35Zm-8-3.85a2.75,2.75,0,0,0,0,5.5,2.75,2.75,0,0,0,0-5.5Zm0,3.85a1.1,1.1,0,1,1,1.06-1.1A1.07,1.07,0,0,1,9.61,20.35Zm13.6-17.6h-18L4.79.65A.84.84,0,0,0,4,0H.8A.82.82,0,0,0,0,.83a.81.81,0,0,0,.8.82H3.35L6.1,15c.11.5.43.92.84.92H20.28a.83.83,0,0,0,0-1.65H7.59l-.34-1.65h14.1a.83.83,0,0,0,.77-.64L24,3.76A.86.86,0,0,0,23.21,2.75ZM10.41,11H6.91L6.4,8.52h4Zm0-4.12H6.06L5.55,4.4h4.86ZM15.74,11H12V8.52h3.73Zm0-4.12H12V4.4h3.73Zm5,4.12H17.34V8.52h3.93Zm.94-4.12H17.34V4.4h4.87Z"/></g></g></g></svg>