<svg xmlns="http://www.w3.org/2000/svg" width="29" height="42" viewBox="0 0 29 42"><g><g><path fill="#ef7f1a" d="M1.983 29.561a31.225 31.225 0 0 0 1.693-5.207c3.175 1.331 7.632 2.313 10.846 2.313 3.27 0 7.625-1.035 10.781-2.401.384 1.795.92 3.53 1.602 5.196-6.912 4.157-17.958 4.217-24.922.1zm12.54-10.91c2.856 0 6.994-.512 10.033-1.534.001 1.855.147 3.664.425 5.424-5.8 2.623-15.087 2.665-20.957.1a34.15 34.15 0 0 0 .505-5.51c3.038 1 7.175 1.52 9.994 1.52zM28.956 41.22a.842.842 0 0 1-.836.78H.975a.844.844 0 0 1-.836-.737c-.025-.172-.574-4.294.524-8.186.171-.616.405-1.266.665-1.927 3.756 2.163 9.049 3.558 13.187 3.558 4.162 0 9.3-1.463 13.029-3.646.266.69.508 1.369.694 2.015 1.081 3.874.735 7.972.718 8.143zM4.016 15a6.285 6.285 0 0 1-.895-4.217c.354-2.666 2.424-4.843 5.025-5.289.079-.013.158-.018.236-.028V.857A.85.85 0 0 1 9.227 0a.85.85 0 0 1 .845.857v4.605a6.051 6.051 0 0 1 2.82 1.164c.516.385 1.183.6 1.867.608.566 0 1.022-.274 1.309-.505a6.057 6.057 0 0 1 2.95-1.268V.857A.85.85 0 0 1 19.861 0a.85.85 0 0 1 .844.857v4.614c.084.011.168.017.252.032 2.601.454 4.662 2.64 5.017 5.306a6.267 6.267 0 0 1-.904 4.19c-.025.04-.042.079-.065.118-5.605 2.402-15.243 2.396-20.908.03-.028-.049-.05-.098-.082-.147z"/></g></g></svg>
