<svg xmlns="http://www.w3.org/2000/svg" width="28" height="43" viewBox="0 0 28 43"><g><g><path fill="#ef7f1a" d="M20.565 3.207c1.799.416 3.239 1.317 3.239 3.243 0 .83-.952 1.987-1.714 2.782l-.683-.5a4.378 4.378 0 0 0-1.388-.661zM8.402 18.633h3.5v1.433h-3.5zM9.239 2.94a24.278 24.278 0 0 1 1.963-.073.71.71 0 0 0 .7-.717V.717c0-.397.313-.717.7-.717h2.8c.387 0 .7.32.7.717V2.15a.71.71 0 0 0 .7.717c.757 0 1.577.023 2.38.11l-.55 4.903a5.391 5.391 0 0 0-1.138.114c-1.353.288-2.566 1.067-3.492 2.23-.927-1.163-2.139-1.942-3.492-2.229a5.4 5.4 0 0 0-1.086-.118zm8.539 6.458c1.033-.218 2.085-.031 2.816.501l1.073.785c-.16 3.3-.882 5.359-1.472 6.516H16.1c-.004-.791-.634-1.433-1.408-1.433h-1.38c-.775 0-1.404.642-1.41 1.433H7.809c-.596-1.172-1.33-3.264-1.479-6.636L7.41 9.9c.73-.534 1.786-.721 2.817-.502 1.282.273 2.41 1.138 3.176 2.438.254.43.945.43 1.2 0 .766-1.3 1.894-2.166 3.176-2.438M14.702 21.49c0 .005-.005.01-.01.01l-1.39-.01.01-4.29 1.39.01v4.28m1.4-2.857h3.5v1.433h-3.5zM5.863 9.18C5.111 8.387 4.2 7.26 4.2 6.45c0-2.07 1.66-2.957 3.645-3.329l.185 4.934c-.514.14-.989.355-1.388.647zm20.037 27.37c.386 0 .7-.321.7-.717a.709.709 0 0 0-.7-.716c-.387 0-.7.32-.7.716 0 .396.313.717.7.717 0 0-.387 0 0 0zm-1.4 2.15c.386 0 .7-.321.7-.717a.709.709 0 0 0-.7-.716c-.386 0-.7.32-.7.716 0 .396.314.717.7.717 0 0-.386 0 0 0zm-1.4 2.15c.386 0 .7-.321.7-.717a.709.709 0 0 0-.7-.716c-.386 0-.7.32-.7.716 0 .396.314.717.7.717 0 0-.386 0 0 0zm-1.4-2.15c.386 0 .7-.321.7-.717a.709.709 0 0 0-.7-.716c-.386 0-.7.32-.7.716 0 .396.314.717.7.717 0 0-.386 0 0 0zm-1.4 2.15c.387 0 .7-.321.7-.717a.709.709 0 0 0-.7-.716c-.386 0-.7.32-.7.716 0 .396.314.717.7.717 0 0-.386 0 0 0zm-1.4-2.15c.387 0 .7-.321.7-.717a.709.709 0 0 0-.7-.716c-.386 0-.7.32-.7.716 0 .396.314.717.7.717 0 0-.386 0 0 0zm-1.4 2.15c.387 0 .7-.321.7-.717a.709.709 0 0 0-.7-.716c-.386 0-.7.32-.7.716 0 .396.314.717.7.717 0 0-.386 0 0 0zm-1.4-2.15c.387 0 .7-.321.7-.717a.709.709 0 0 0-.7-.716c-.386 0-.7.32-.7.716 0 .396.314.717.7.717 0 0-.386 0 0 0zm-1.4 2.15c.387 0 .7-.321.7-.717a.709.709 0 0 0-.7-.716c-.386 0-.7.32-.7.716 0 .396.314.717.7.717 0 0-.386 0 0 0zm-1.4-2.15c.387 0 .7-.321.7-.717a.709.709 0 0 0-.7-.716c-.386 0-.7.32-.7.716 0 .396.314.717.7.717 0 0-.386 0 0 0zm-1.4 2.15c.387 0 .7-.321.7-.717a.709.709 0 0 0-.7-.716c-.386 0-.7.32-.7.716 0 .396.314.717.7.717 0 0-.386 0 0 0zm-1.399-2.15c.386 0 .7-.321.7-.717a.709.709 0 0 0-.7-.716c-.386 0-.7.32-.7.716 0 .396.314.717.7.717 0 0-.386 0 0 0zm-1.4 2.15c.386 0 .7-.321.7-.717a.709.709 0 0 0-.7-.716c-.386 0-.7.32-.7.716 0 .396.314.717.7.717 0 0-.386 0 0 0zm-1.4-2.15c.387 0 .7-.321.7-.717a.709.709 0 0 0-.7-.716c-.386 0-.7.32-.7.716 0 .396.314.717.7.717 0 0-.386 0 0 0zm-1.4 2.15c.387 0 .7-.321.7-.717a.709.709 0 0 0-.7-.716c-.386 0-.7.32-.7.716 0 .396.314.717.7.717 0 0-.386 0 0 0zm-1.4-2.15c.387 0 .7-.321.7-.717a.709.709 0 0 0-.7-.716c-.386 0-.7.32-.7.716 0 .396.314.717.7.717 0 0-.386 0 0 0zm-1.4-2.15c.387 0 .7-.321.7-.717a.709.709 0 0 0-.7-.716c-.386 0-.7.32-.7.716 0 .396.314.717.7.717 0 0-.386 0 0 0zm-1.4 2.15c.387 0 .7-.321.7-.717a.709.709 0 0 0-.7-.716c-.386 0-.7.32-.7.716 0 .396.314.717.7.717 0 0-.386 0 0 0zm1.4-7.883c-.386 0-.7.32-.7.716 0 .396.314.717.7.717.387 0 .7-.321.7-.717a.709.709 0 0 0-.7-.716s.387 0 0 0zm1.4-2.15c-.386 0-.7.32-.7.716 0 .396.314.717.7.717.387 0 .7-.321.7-.717a.709.709 0 0 0-.7-.716s.387 0 0 0zm1.4-2.15c-.386 0-.7.32-.7.716 0 .396.314.717.7.717.387 0 .7-.321.7-.717a.709.709 0 0 0-.7-.717s.387 0 0 0zm1.4-2.15c-.386 0-.7.32-.7.716 0 .396.314.717.7.717.387 0 .7-.321.7-.717a.709.709 0 0 0-.7-.717s.387 0 0 0zm1.4-2.15c-.386 0-.7.32-.7.716 0 .396.314.717.7.717.386 0 .7-.321.7-.717a.709.709 0 0 0-.7-.716s.386 0 0 0zm1.4 2.15c-.386 0-.7.32-.7.716 0 .396.314.717.7.717.386 0 .7-.321.7-.717a.709.709 0 0 0-.7-.717s.386 0 0 0zm1.4 2.15c-.387 0-.7.32-.7.716 0 .396.313.717.7.717.386 0 .7-.321.7-.717a.709.709 0 0 0-.7-.717s.386 0 0 0zm1.4-2.15c-.387 0-.7.32-.7.716 0 .396.313.717.7.717.386 0 .7-.321.7-.717a.709.709 0 0 0-.7-.717s.386 0 0 0zm1.4 2.15c-.387 0-.7.32-.7.716 0 .396.313.717.7.717.386 0 .7-.321.7-.717a.709.709 0 0 0-.7-.717s.386 0 0 0zm1.4-2.15c-.387 0-.7.32-.7.716 0 .396.313.717.7.717.386 0 .7-.321.7-.717a.709.709 0 0 0-.7-.717s.386 0 0 0zm1.4-2.15c-.387 0-.7.32-.7.716 0 .396.313.717.7.717.386 0 .7-.321.7-.717a.709.709 0 0 0-.7-.716s.386 0 0 0zm1.4 2.15c-.387 0-.7.32-.7.716 0 .396.313.717.7.717.386 0 .7-.321.7-.717a.709.709 0 0 0-.7-.717s.386 0 0 0zm1.4-2.15c-.387 0-.7.32-.7.716 0 .396.313.717.7.717.386 0 .7-.321.7-.717a.709.709 0 0 0-.7-.716s.386 0 0 0zm1.4 2.15c-.387 0-.7.32-.7.716 0 .396.313.717.7.717.385 0 .699-.321.699-.717a.709.709 0 0 0-.7-.717s.386 0 0 0zm1.399 2.15c-.386 0-.7.32-.7.716 0 .396.314.717.7.717.386 0 .7-.321.7-.717a.709.709 0 0 0-.7-.717s.386 0 0 0zm0 5.733c.386 0 .7-.321.7-.717a.709.709 0 0 0-.7-.716c-.386 0-.7.32-.7.716 0 .396.314.717.7.717 0 0-.386 0 0 0zm0 2.867c-.386 0-.7.32-.7.716 0 .396.314.717.7.717.386 0 .7-.321.7-.717a.709.709 0 0 0-.7-.716s.386 0 0 0zm-1.4-2.15c-.386 0-.7.32-.7.716 0 .396.314.717.7.717.386 0 .7-.321.7-.717a.709.709 0 0 0-.7-.716s.386 0 0 0zm0-4.3c-.386 0-.7.32-.7.716 0 .396.314.717.7.717.386 0 .7-.321.7-.717a.709.709 0 0 0-.7-.716s.386 0 0 0zm-1.4-.717c.387 0 .7-.321.7-.717a.709.709 0 0 0-.7-.717c-.386 0-.7.322-.7.717 0 .396.314.717.7.717 0 0-.386 0 0 0zm0 4.3c.387 0 .7-.321.7-.717a.709.709 0 0 0-.7-.716c-.386 0-.7.32-.7.716 0 .396.314.717.7.717 0 0-.386 0 0 0zm0 2.867c-.386 0-.7.32-.7.716 0 .396.314.717.7.717.387 0 .7-.321.7-.717a.709.709 0 0 0-.7-.716s.387 0 0 0zm-1.4-2.15c-.386 0-.7.32-.7.716 0 .396.314.717.7.717.387 0 .7-.321.7-.717a.709.709 0 0 0-.7-.716s.387 0 0 0zm0-4.3c-.386 0-.7.32-.7.716 0 .396.314.717.7.717.387 0 .7-.321.7-.717a.709.709 0 0 0-.7-.716s.387 0 0 0zm-1.4-.717c.387 0 .7-.321.7-.717a.709.709 0 0 0-.7-.717c-.386 0-.7.322-.7.717 0 .396.314.717.7.717 0 0-.386 0 0 0zm0 4.3c.387 0 .7-.321.7-.717a.709.709 0 0 0-.7-.716c-.386 0-.7.32-.7.716 0 .396.314.717.7.717 0 0-.386 0 0 0zm0 2.867c-.386 0-.7.32-.7.716 0 .396.314.717.7.717.387 0 .7-.321.7-.717a.709.709 0 0 0-.7-.716s.387 0 0 0zm-2.1-5.734c0 .396.314.717.7.717.387 0 .7-.321.7-.717a.709.709 0 0 0-.7-.716c-.386 0-.7.32-.7.716 0 0 0-.395 0 0zm.7 3.584c-.386 0-.7.32-.7.716 0 .396.314.717.7.717.387 0 .7-.321.7-.717a.709.709 0 0 0-.7-.716s.387 0 0 0zm-1.4-.717c.387 0 .7-.321.7-.717a.709.709 0 0 0-.7-.716c-.386 0-.7.32-.7.716 0 .396.314.717.7.717 0 0-.386 0 0 0zm0 2.867c-.386 0-.7.32-.7.716 0 .396.314.717.7.717.387 0 .7-.321.7-.717a.709.709 0 0 0-.7-.716s.387 0 0 0zm-2.1-5.734c0 .396.314.717.7.717.387 0 .7-.321.7-.717a.709.709 0 0 0-.7-.716c-.386 0-.7.32-.7.716 0 0 0-.395 0 0zm.7 3.584c-.386 0-.7.32-.7.716 0 .396.314.717.7.717.387 0 .7-.321.7-.717a.709.709 0 0 0-.7-.716s.387 0 0 0zm-1.4-.717c.387 0 .7-.321.7-.717a.709.709 0 0 0-.7-.716c-.386 0-.7.32-.7.716 0 .396.314.717.7.717 0 0-.386 0 0 0zm0 2.867c-.386 0-.7.32-.7.716 0 .396.314.717.7.717.387 0 .7-.321.7-.717a.709.709 0 0 0-.7-.716s.387 0 0 0zm-1.399-2.15c-.386 0-.7.32-.7.716 0 .396.314.717.7.717.386 0 .7-.321.7-.717a.709.709 0 0 0-.7-.716s.386 0 0 0zm0-4.3c-.386 0-.7.32-.7.716 0 .396.314.717.7.717.386 0 .7-.321.7-.717a.709.709 0 0 0-.7-.716s.386 0 0 0zm-1.4-.717c.386 0 .7-.321.7-.717a.709.709 0 0 0-.7-.717c-.386 0-.7.322-.7.717 0 .396.314.717.7.717 0 0-.386 0 0 0zm0 4.3c.386 0 .7-.321.7-.717a.709.709 0 0 0-.7-.716c-.386 0-.7.32-.7.716 0 .396.314.717.7.717 0 0-.386 0 0 0zm0 2.867c-.386 0-.7.32-.7.716 0 .396.314.717.7.717.386 0 .7-.321.7-.717a.709.709 0 0 0-.7-.716s.386 0 0 0zm-2.1-5.734c0 .396.314.717.7.717.387 0 .7-.321.7-.717a.709.709 0 0 0-.7-.716c-.386 0-.7.32-.7.716 0 0 0-.395 0 0zm.7 3.584c-.386 0-.7.32-.7.716 0 .396.314.717.7.717.387 0 .7-.321.7-.717a.709.709 0 0 0-.7-.716s.387 0 0 0zm-1.4-.717c.387 0 .7-.321.7-.717a.709.709 0 0 0-.7-.716c-.386 0-.7.32-.7.716 0 .396.314.717.7.717 0 0-.386 0 0 0zm-1.4 2.15c.387 0 .7-.321.7-.717a.709.709 0 0 0-.7-.716c-.386 0-.7.32-.7.716 0 .396.314.717.7.717 0 0-.386 0 0 0zm1.4.717c-.386 0-.7.32-.7.716 0 .396.314.717.7.717.387 0 .7-.321.7-.717a.709.709 0 0 0-.7-.716s.387 0 0 0zm18.199-2.15c-.386 0-.7.32-.7.716 0 .396.314.717.7.717.386 0 .7-.321.7-.717a.709.709 0 0 0-.7-.716s.386 0 0 0zm3.478 6.268l.008.04a.718.718 0 0 1-.495.831C27.09 40.224 17.56 43 14.002 43 10.445 43 .915 40.224.51 40.106a.718.718 0 0 1-.494-.831c.1-.51 2.368-11.737 7.446-17.775h4.44c.005.791.634 1.433 1.409 1.433h1.38c.774 0 1.403-.642 1.409-1.433h4.439c4.984 5.926 7.261 16.85 7.439 17.735-.016-.08-.046-.232 0 0z"/></g></g></svg>
