<svg xmlns="http://www.w3.org/2000/svg" width="42" height="42" viewBox="0 0 42 42"><g><g><path fill="#fff" d="M41.565 24.315c-.894.715-2.861 1.876-4.918 1.34-.268-.09-.447-.179-.626-.357-.983-1.162-5.096-6.167-6.706-9.473-.089-.268-.626-.179-.626.09.269 3.753 1.52 12.421 7.332 25.2.18.358-.178.715-.715.626-1.967-.268-6.617-.715-14.574.268-7.78-.983-12.25-.625-14.217-.268-.447.09-.895-.268-.716-.626 5.633-12.69 6.885-21.358 7.153-25.111 0-.269-.536-.358-.625-.09-1.61 3.307-5.634 8.311-6.528 9.473-.179.179-.357.268-.626.357-2.056.537-3.934-.625-4.828-1.34-.358-.268-.447-.626-.268-.983L8.482 9.48c.09-.268.268-.626.357-.894a9.845 9.845 0 0 0 1.61 2.502c.358.447.715.894 1.341 1.252a5.9 5.9 0 0 0 2.861.714c1.252 0 2.593-.357 3.577-.625.626-.268 1.52-.447 2.235-1.072a3.958 3.958 0 0 0 1.073-1.341c0 .09.09.179.18.268 1.34 1.52 3.665 2.502 6.08 2.502h.804c1.699-.178 3.04-.715 3.934-1.698a4.848 4.848 0 0 0 .894-1.608l8.495 13.94c.179.27.09.716-.358.895zM11.88 9.837c-1.34-1.608-2.414-3.574-1.43-5.362.447-.804 1.341-1.519 2.235-2.055C16.35.186 21.626-.62 26.186.454c1.878.447 3.755 1.25 4.739 2.502 1.073 1.43 1.073 3.039.894 4.647 0 .715-.179 1.52-.715 2.145-.626.625-1.61.983-2.683 1.072-2.056.18-4.113-.536-5.275-1.787-1.163-1.251-1.252-3.038-.269-4.379.358-.447.805-.894.716-1.43-.09-.536-.894-.893-1.61-.983-.715 0-1.52.179-2.235.268-.358.09-.715.179-.894.447-.09.179-.09.447-.09.626.18 1.608 1.252 3.127 1.163 4.736 0 .626-.179 1.162-.716 1.609-.447.357-1.072.536-1.609.715-1.61.446-3.487.893-4.828.089a4.233 4.233 0 0 1-.895-.894z"/></g></g></svg>