<svg xmlns="http://www.w3.org/2000/svg" width="38" height="36" viewBox="0 0 38 36"><g><g><path fill="#fff" d="M38 34.826c0 .46-.338.837-.802.879l-5.398.293a.699.699 0 0 1-.633-.21c-.169-.125-.253-.376-.253-.586 0-.042-.169-6.027-.97-11.008a84.773 84.773 0 0 0-.97-4.898c-.506 2.051-1.012 4.437-1.054 5.358 0 .67.253 1.632.59 2.72.464 1.591 1.054 3.559 1.054 5.777 0 .754-.337 2.47-3.374 2.47-2.066 0-4.807-.795-6.326-1.298v-6.572c.253-1.465.633-3.139 1.139-4.939.59-2.135 1.307-3.809 2.067-5.19 1.265-2.303 2.488-3.81 2.952-5.233.717-2.302-1.181-3.892-1.181-3.892s.506.334 1.012.334h.042c.548-.041 1.139-.544 1.012-2.595-.126-1.674-.927-3.14-1.813-4.353l6.537 2.972c.169.084.337.251.422.418.126.335 3.585 8.037 4.47 14.274.928 6.363 1.181 10.507 1.476 15.279zM15.182.25A3.1 3.1 0 0 1 16.448 0h5.061c.464 0 .886.083 1.35.25.464 1.633 1.138 4.856.21 8.247-.463 1.674-1.096 3.6-1.686 5.441-1.181 3.516-2.32 6.614-2.32 6.614s-1.18-3.098-2.362-6.614a96.865 96.865 0 0 1-1.687-5.441c-.548-1.968-.548-3.851-.38-5.442 0-.251.043-.502.085-.712 0-.125.042-.209.042-.335.127-.711.295-1.297.422-1.758zm2.952 27.794v6.196c-1.518.502-4.26 1.297-6.326 1.297-3.037 0-3.374-1.716-3.374-2.47 0-2.218.59-4.185 1.054-5.776.338-1.088.59-2.01.59-2.679 0-.92-.547-3.307-1.054-5.358-.295 1.256-.674 2.93-.97 4.898-.8 4.98-.97 10.967-.97 11.008 0 .21-.084.419-.253.587-.168.125-.38.209-.59.209H6.2L.8 35.663c-.464-.042-.843-.419-.8-.88.252-4.73.505-8.873 1.39-15.236C2.32 13.31 5.779 5.608 5.906 5.273c.084-.167.253-.334.421-.418l6.495-3.014c-.886 1.214-1.687 2.72-1.813 4.353-.17 2.093.464 2.596 1.054 2.596h.169c.38-.042.717-.21.843-.293-.295.25-1.771 1.758-1.096 3.809.717 2.302 3.458 4.772 5.018 10.422.422 1.507.76 2.847 1.013 4.103a1.319 1.319 0 0 0-1.097-.586c-.717 0-1.307.586-1.307 1.297 0 .712.59 1.298 1.307 1.298.548 0 1.012-.293 1.223-.796z"/></g></g></svg>