<svg xmlns="http://www.w3.org/2000/svg" width="37" height="45" viewBox="0 0 37 45"><g><g><path fill="#ef7f1a" d="M15.56 34.294l18.315-7.676 3.083 6.353-12.905 6.063zM21.886.065c.473.686.902 1.397 1.286 2.13a32.049 32.049 0 0 1-20.805 0C2.75 1.461 3.178.75 3.649.064a29.278 29.278 0 0 0 18.237 0zm-9.979 2.66c0 .444.388.803.865.803s.863-.36.863-.804V2.7c-.013-.443-.41-.793-.887-.78-.47.011-.843.37-.84.806zm8.852 1.857zm0 0c1.053-.255 2.09-.56 3.11-.916a19.787 19.787 0 0 1 1.123 12.118 56.847 56.847 0 0 0-1.37 13.37l-8.303 3.48-2.209-15.19a.334.334 0 0 0-.296-.275c-.189-.024-.363.1-.389.275L8.416 45.021H.557l1.099-11.332c.58-5.987.206-12.02-1.112-17.905a19.788 19.788 0 0 1 1.124-12.12c1.019.356 2.057.661 3.11.917L2.209 7.598a18.256 18.256 0 0 0-.397 3.054l4.83-5.674c1.735.318 3.495.5 5.262.545v6.584c1.023-.275 1.728-1.146 1.728-2.136V5.524a33.973 33.973 0 0 0 5.262-.545l4.83 5.673a18.258 18.258 0 0 0-.397-3.054z"/></g></g></svg>
