<svg xmlns="http://www.w3.org/2000/svg" viewBox="0 0 19 19"><defs><style>.cls-1{fill-rule:evenodd;}</style></defs><title>search</title><g id="Слой_2" data-name="Слой 2"><g id="header"><g id="search"><path class="cls-1" d="M18.58,16.51l-3.92-3.92A7.84,7.84,0,0,0,16.08,8a7.74,7.74,0,0,0-.64-3.12,7.92,7.92,0,0,0-1.71-2.57A8.22,8.22,0,0,0,11.16.63a8,8,0,0,0-6.24,0A8,8,0,0,0,.63,4.92a8,8,0,0,0,0,6.24,8.22,8.22,0,0,0,1.72,2.57,7.92,7.92,0,0,0,2.57,1.71A7.74,7.74,0,0,0,8,16.08a7.84,7.84,0,0,0,4.55-1.42l3.92,3.91a1.35,1.35,0,0,0,1,.43A1.47,1.47,0,0,0,19,17.54,1.4,1.4,0,0,0,18.58,16.51Zm-6.93-4.86A4.92,4.92,0,0,1,8,13.15a5,5,0,0,1-3.62-1.5A4.92,4.92,0,0,1,2.92,8a5,5,0,0,1,1.5-3.62A5,5,0,0,1,8,2.92a4.92,4.92,0,0,1,3.61,1.5A5,5,0,0,1,13.15,8,4.92,4.92,0,0,1,11.65,11.65Z"/></g></g></g></svg>