<svg xmlns="http://www.w3.org/2000/svg" width="42" height="32" viewBox="0 0 42 32"><g><g><path fill="#fff" d="M33.195.016l.843 30.957a.893.893 0 0 1-.273.662c-.182.184-.431.366-.69.366H8.955c-.26 0-.509-.145-.69-.33a1.046 1.046 0 0 1-.272-.736L8.837.016h5.13c.484 0 .891.298.956.775.407 2.98 2.977 5.223 6.091 5.223 3.112 0 5.684-2.262 6.091-5.243.066-.475.47-.755.954-.755zM.69 2.311L7 .004v10.238L1.403 12.32c-.296.11-.661.07-.921-.109-.26-.176-.482-.471-.482-.786V3.208c0-.4.315-.758.69-.897zM42 3.208v8.217c0 .313-.207.608-.47.786-.258.18-.643.22-.938.109L35 10.24V0l6.32 2.31c.379.14.68.499.68.898z"/></g></g></svg>